<?xml version="1.0" encoding="UTF-8"?><svg id="Layer_2" xmlns="http://www.w3.org/2000/svg" viewBox="0 0 112.0796 111.674"><g id="Layer_2-2"><path d="M112.0795,4.0712c-2.6107,2.3113-5.3372,4.5062-7.8052,6.961-3.7408,3.7209-7.6825,7.2205-11.4901,10.8619-2.6859,2.5687-5.4974,5.0056-8.0986,7.6707-2.25,2.3051-4.7963,4.3199-7.0636,6.6095-2.4523,2.4765-5.1185,4.7025-7.7146,7.0118-.5609.499-.5092.8516.0423,1.2805,1.7252,1.3418,2.9546,3.1578,4.4654,4.706,1.4639,1.5001,2.9389,2.9862,4.3136,4.5768,1.7884,2.0693,3.713,4.0206,5.5724,6.0287.8135.8786,1.5682,1.8157,2.4236,2.6505,2.4611,2.4019,2.2913,3.7211-.2742,5.8911-1.5937,1.3481-2.9887,2.9287-4.5524,4.3152-1.9813,1.7567-3.7411,3.7468-5.8728,5.3512-1.2594.9479-2.3271,2.1515-3.475,3.2464-1.7905,1.7078-3.5568,3.4416-5.3683,5.1267-2.3885,2.2217-4.8029,4.4159-7.2208,6.6056-2.9094,2.6348-5.8534,5.2316-8.7469,7.8835-2.8596,2.6207-5.8446,5.1065-8.4809,7.9702-.7811.8485-1.7961,1.4777-2.6286,2.2849-.3916.3798-.7993.304-1.2084.3061-4.4298.0222-8.8597.0314-13.2896.0309-7.6231-.001-15.2463-.0379-22.869.0131-1.0367.0069-1.7777-.4265-2.1237-1.1711-.3581-.7705-.2951-1.8302.3287-2.5009,1.3343-1.4344,2.7104-2.8585,4.2391-4.0734.9807-.7794,1.7778-1.7258,2.7446-2.5147,2.0356-1.6608,3.9369-3.5137,5.7864-5.3578,2.7568-2.7488,5.6615-5.3398,8.4776-8.0156,2.2623-2.1497,4.5937-4.2638,6.8767-6.3952,2.2265-2.0787,4.4646-4.154,6.7019-6.2258,3.3559-3.1077,6.7108-6.2168,10.1046-9.2827.6515-.5885.5454-.8719.0198-1.4986-2.4152-2.8792-5.2229-5.3901-7.6096-8.3012-1.6594-2.024-3.5429-3.8729-5.4094-5.7158-1.5021-1.4831-2.9039-3.0537-4.3075-4.6224-1.3162-1.471-1.2109-2.8532.2896-4.2382,2.5343-2.3392,5.1348-4.6072,7.6524-6.9639,2.1652-2.0268,4.1601-4.2446,6.4074-6.1714,1.6139-1.3838,3.0671-2.9474,4.7644-4.2219.5806-.436.9313-1.0347,1.4542-1.5086,2.1439-1.9429,4.3276-3.8573,6.3619-5.9033,1.692-1.7017,3.5895-3.1666,5.2246-4.9385,1.7992-1.9498,3.9059-3.6141,5.8581-5.4249,1.6291-1.5111,3.2202-3.0631,4.849-4.5745.2968-.2754.5101-.7399,1.0453-.66.1124-.0596.2245-.1192.3366-.1787.0328-.0857.0657-.1715.0986-.2573.6772-.0063,1.3544-.0179,2.0315-.018,11.1541-.0009,22.3081.0034,33.4622-.0134.4476-.0007,1.0899.3229,1.2817-.4661h.7185c.2861.2802.2426.8793.7914.8923.6994.0165.7383.5557.885,1.0236v1.9159Z" style="fill:#94c842; stroke-width:0px;"/><path d="M109.6846.2395c-.1918.789-.8341.4655-1.2817.4661-11.154.0168-22.3081.0126-33.4622.0134-.6772,0-1.3543.0116-2.0315.018.0705-.3306.587-.1119.613-.4975h36.1624Z" style="fill:#8cc152; stroke-width:0px;"/><path d="M112.0795,2.1554c-.1467-.468-.1856-1.0071-.885-1.0236-.5488-.013-.5053-.612-.7914-.8923q1.6764,0,1.6764,1.9159Z" style="fill:#eaefe8; stroke-width:0px;"/><path d="M72.8107.9943c-.1121.0595-.2241.1191-.3366.1787.112-.0595.2243-.1191.3366-.1787Z" style="fill:#8cc152; stroke-width:0px;"/><path d="M51.2798,18.9603c-2.484-1.3375-4.9287-2.7534-7.461-3.9947-4.1934-2.0557-8.6031-3.4774-13.2297-4.2973-2.9212-.5177-5.8535-.5779-8.665.1102-2.5252.618-4.819,1.9737-6.4176,4.1747-.1618.2228-.2576.5154-.4633.6775-.2055.162-.5105.2006-.7719.2934-.017-.2493-.1032-.5172-.0406-.7452.8833-3.2177,2.7735-5.6785,5.8207-7.1413,1.1117-.5337,2.3729-.763,3.566-1.1312,1.3564-.072,2.7128-.1441,4.0691-.2161.4934-.0064.9868-.0128,1.4803-.0192,2.166.3357,4.4226.3989,6.4779,1.0671,3.6365,1.1822,7.1572,2.7158,10.7115,4.1387,1.0719.4291,2.1113.9471,3.1351,1.4816.9482.4951,1.8556,1.0666,2.781,1.6045l.7313.4385-.0111-.0063c.0999.0793.1998.1586.2997.2379.0559-.0063.1086.0036.1583.0297l.3034.2093c.0687.0415.1374.0829.2061.1244.3171.2722.6343.5443.9514.8165l.1124.0178.1136-.0073v.4716c-.5481.318-1.0961.636-1.6442.954-.7378.2371-1.4755.4743-2.2133.7114Z" style="fill:#2fb4e8; stroke-width:0px;"/><path d="M26.0266,6.2128c.6421.0778,1.2856.1465,1.9259.2367.4071.0573.8096.1466,1.2142.2216-.4933.0064-.9867.0128-1.48.0191-.8035-.0894-1.6071-.1787-2.4107-.268.0262-.0674.0378-.1372.0348-.2093.2386,0,.4772,0,.7158,0Z" style="fill:#6b9fd1; stroke-width:0px;"/><path d="M51.2798,18.9603c.7377-.2371,1.4755-.4743,2.2133-.7114-.6205,1.2897-1.2185,1.482-2.2133.7114Z" style="fill:#44addd; stroke-width:0px;"/><path d="M25.276,6.4221c.8036.0893,1.6072.1786,2.4107.268-1.3565.0721-2.7128.1442-4.0692.2162.5528-.1614,1.1056-.3228,1.6585-.4842Z" style="fill:#7eb9e5; stroke-width:0px;"/><path d="M53.9599,15.9964c.3172.2722.6343.5444.9515.8166-.3172-.2722-.6343-.5444-.9515-.8166Z" style="fill:#4ca5da; stroke-width:0px;"/><path d="M52.2723,14.9629c.2437.1462.4875.2924.7312.4385-.2437-.1462-.4875-.2924-.7312-.4385Z" style="fill:#4ca5da; stroke-width:0px;"/><path d="M52.9924,15.3951c.0997.0793.1995.1585.2994.2379-.0996-.0793-.1995-.1586-.2994-.2379Z" style="fill:#4ca5da; stroke-width:0px;"/><path d="M53.4504,15.6628c.101.0697.2021.1394.3033.2092-.101-.0697-.2021-.1395-.3033-.2092Z" style="fill:#4ca5da; stroke-width:0px;"/><path d="M111.6612,91.4657l.4184.0186v5.2684c-.1409.0047-.2818.0094-.4228.014-.0339-.0727-.0501-.1491-.0486-.2293-.0001-1.6198-.0002-3.2396-.0003-4.8594.0019-.0748.0196-.1455.0533-.2123Z" style="fill:#dde0ef; stroke-width:0px;"/><path d="M111.6082,96.5374c-.0015.0801.0147.1565.0486.2292-.0021.1569-.0042.3138-.0065.4706-.0792.5608-.1584,1.1217-.2375,1.6825-.018.1545-.0359.3091-.0539.4637-.0607.3208-.1213.6415-.1819.9622-.1784.5572-.3567,1.1145-.5351,1.6717-.0604.1663-.1208.3326-.1812.4989-.0208.0728-.0393.1461-.0555.2201-.4004.7202-.8007,1.4404-1.201,2.1606-.0787.078-.1574.1559-.2362.2339-.1615.2409-.3229.4818-.4844.7227-.0779.0785-.1558.1569-.2337.2354-.1811.2132-.3622.4264-.5432.6397,0,0-.0215.0209-.0206.0214-.2103.2614-.4216.5223-.633.7831-.1603.0769-.3206.1537-.481.2306-.6392.4813-1.2785.9626-1.9177,1.4439-.0751.0166-.1498.0348-.2241.0545-.6318.2225-1.2635.4451-1.8952.6677-.4162.1541-.8324.3082-1.2486.4623l-.0687.0278s-.0737-.008-.0739-.0079c-.8253.1481-1.6503.2961-2.4754.4441-.0554.0323-.1149.0438-.1785.0344-.4192-.0001-.8383-.0003-1.2573-.0004l-4.3114-.0084c-.3101-.156-.615-.4331-.9312-.4466-1.228-.0524-2.4596-.021-3.6899-.0207-2.0471-.5104-4.1466-.8703-6.1308-1.5613-4.7322-1.648-9.3732-3.5202-13.6702-6.1646-2.8997-1.7845-5.8948-3.4133-8.8051-5.1813-1.1927-.7246-2.2743-1.6323-3.4065-2.4566.0521-.1889.1129-.3759.1552-.567.3408-1.5408.1511-1.7855-1.4148-1.7987-.5519-.0047-1.1001.0878-1.2244-.7221-.0628-.4091-.3188-1.0985-.5359-1.1179-.7457-.0665-1.5128.107-2.2717.1891-1.3893-1.0416-2.8361-2.0158-4.1557-3.1393-2.5865-2.202-5.1485-4.4377-7.629-6.7573-1.3866-1.2966-2.5713-2.8069-3.8806-4.1891-1.1023-1.1637-2.3153-2.227-3.3704-3.4303-2.776-3.1659-5.4927-6.3837-8.2333-9.5808.0775-.5783.1551-1.1566.2316-1.7266-.6095.1215-1.0116.2017-1.4138.2818-1.9267-2.7672-3.8565-5.5323-5.7785-8.3028-.8069-1.163-1.6085-2.3301-2.3879-3.5116-.2107-.3194-.3315-.6981-.4936-1.0497-.0819-.097-.1638-.1938-.2456-.2907,0,0,.0096.0159.0096.0159-.1468-.2514-.2935-.5027-.4403-.754-.0391-.0369-.0519-.0814-.0387-.1337-.0767-.1216-.1534-.243-.23-.3644,0,0-.0097-.1121-.0098-.1125-.274-1.018-.1862-2.2299-1.4565-2.7126,0,0,.015.0133.015.0133-.1036-.1661-.2072-.3321-.3108-.4981-.2165-.4562-.4329-.9124-.6494-1.3689-.0803-.1021-.1606-.204-.2408-.3058,0,0,.0083.0094.0082.0094-.0673-.0874-.1346-.1748-.2018-.2621-.0387-.0548-.0541-.1155-.0463-.1823.6435-.7853,1.5598-1.5731-.062-2.3094-.1011-.0459-.0758-.3258-.1795-.4179-.451-.4009-.9279-.7726-1.3954-1.1549-.8975-2.3617-1.8212-4.7139-2.6824-7.0888-.5056-1.3943-.9208-2.8219-1.3543-4.2414-.0783-.2565-.0483-.546-.0683-.8204.0005-.4701.0743-.9544-.0139-1.4071-.1794-.9207-.4463-1.8244-.6772-2.7351-.0315-.0499-.0384-.1031-.0209-.1596-.002-1.9567-.0039-3.9131-.0057-5.8696.4695-4.6272,2.29-8.4999,6.2612-11.1583,2.3951-1.6032,5.1235-2.1719,7.9259-2.4593,1.1734-.1203,2.3574-.1367,3.5368-.2004.2737.1494.5391.4064.8222.4277.7792.0586,1.5658.0183,2.3494.0172.3094.0736.6188.1473.9281.2209-.3994.0939-.7962.2004-1.1984.2792-.7958.156-1.5947.2967-2.3922.4437-3.8473.6044-7.2273,2.0041-9.3715,5.5073-.0747.0953-.1493.1902-.224.2851,0,0,.0142-.0076.0142-.0076-.1642.2653-.3284.5305-.4927.7957.0199.0424.0156.0822-.0128.1198-.0757.1205-.1515.2407-.2272.3608.0212.0435.0172.0845-.0119.1235-.076.175-.152.3495-.228.5241,0,0,.0118-.0141.0118-.0141-.1626.4272-.3251.8544-.4876,1.2816.0199.042.0155.0812-.0133.118-.2358.4419-.6222.866-.6756,1.3286-.1072.9297-.0328,1.8803-.0334,2.8223.0162.068.0087.1333-.0224.1959-.0005.7156-.001,1.4311-.0016,2.1466.0319.0569.0414.1174.0285.1815.1483,1.2965.2965,2.5928.4448,3.8891.6293,2.2668,1.1272,4.5808,1.9208,6.7886,1.0196,2.8365,2.16,5.6436,3.4637,8.3601,1.3402,2.7924,2.8134,5.5394,4.458,8.1624,1.9872,3.1696,4.2181,6.1862,6.3369,9.2735.3052.4447.5737.9146.8592,1.3729.0817.0959.1633.1916.245.2873,0,0-.0017-.0116-.0018-.0116.0015,1.325,1.0297,2.6915,2.3649,3.143,1.7159,1.981,3.4094,3.982,5.1549,5.9366,1.3704,1.5346,2.8051,3.0117,4.2112,4.5146-.0113.444-.0192.8878-.0356,1.3313-.0067.1796-.032.3585-.0489.5376.2226.0118.497.1105.6558.0156.2545-.1521.4324-.4324.6427-.6585,1.8402,1.8171,3.6231,3.6973,5.5365,5.4337,1.9599,1.7784,3.9875,3.495,6.0926,5.0977,3.6764,2.7989,7.4894,5.4195,11.1441,8.2455,3.8511,2.9778,8.0855,5.2959,12.4186,7.4272,2.6185,1.288,5.4095,2.2253,8.1231,3.3201.4855.1478.9709.2956,1.4563.4434,0,0-.0096-.0094-.0095-.0094.5769.1634,1.1538.3268,1.7307.4902,1.5008.3302,3.0017.6604,4.5025.9905,2.6258.4866,5.2516.7602,7.8771-.0024,3.6601-.7084,6.7672-2.2807,8.6388-5.6823.5615-1.0205.9675-2.1264,1.4448-3.1933,1.2309-.561.8227-1.6974.9312-2.6524.0048-.2346.0097-.4691.0145-.7037.2985.0037.597.0075.8955.0112.0088.2326.0176.4651.0263.6977-.6407.3362-.6422.6596.0193.9699.0069.9646.0138,1.9293.0206,2.8939ZM43.4208,77.3605l-.3996.3385c.3075.352.5993.7205.9378,1.0395.0563.0531.3158-.1092.4813-.172l-1.0195-1.2061Z" style="fill:#2ab4e8; stroke-width:0px;"/><path d="M50.9959,91.0339c.7589-.082,1.526-.2555,2.2717-.1891.2171.0193.4731.7087.5359,1.1179.1243.8099.6725.7175,1.2244.7221,1.5659.0132,1.7556.2579,1.4148,1.7987-.0423.1911-.103.3781-.1552.567-1.4436-1.097-2.8873-2.1941-4.331-3.2911-.1593-.0816-.3187-.1631-.4781-.2446-.1609-.1603-.3217-.3206-.4826-.4809Z" style="fill:#35afdc; stroke-width:0px;"/><path d="M8.4104,38.7994c.4675.3823.9444.754,1.3954,1.1549.1036.0921.0784.372.1795.4179,1.6218.7363.7055,1.5241.062,2.3094-.5456-1.294-1.0912-2.5881-1.6369-3.8823Z" style="fill:#32a8e0; stroke-width:0px;"/><path d="M111.5419,91.9759c-.2985-.0037-.597-.0075-.8955-.0112.0663-1.6779.1326-3.3559.1989-5.0338.1096.3984.2192.7969.3288,1.1953.0664.5386.1328,1.0771.1992,1.6158.0701.582.1401,1.1639.2101,1.7457,0,0,.0777-.0221.0777-.0221-.0337.0667-.0514.1375-.0533.2124-.022.0994-.044.1986-.066.2979Z" style="fill:#26abe2; stroke-width:0px;"/><path d="M99.6171,104.1965c-2.6255.7626-5.2513.489-7.8771.0024,2.6258-.0008,5.2514-.0016,7.8771-.0024Z" style="fill:#2896d3; stroke-width:0px;"/><path d="M110.8453,86.931c-.0663,1.6779-.1327,3.3558-.1989,5.0338-.0048.2346-.0096.4692-.0143.7039-.0918.0017-.1838.0033-.2757.0048v-7.5884c.0374-.0174.0749-.0348.1123-.0522.1573.5506.3147,1.1012.472,1.6517-.0318.0821-.0635.1643-.0953.2464Z" style="fill:#2d92d0; stroke-width:0px;"/><path d="M21.8207,4.0481c.7976-.147,1.5964-.2877,2.3922-.4437.4022-.0788.799-.1853,1.1984-.2792.4009.0846.8017.1692,1.2025.2539.1742.1158.3484.2315.5226.3472-1.7719.0406-3.5439.0812-5.3158.1218Z" style="fill:#168cc8; stroke-width:0px;"/><path d="M30.1649,61.0826c-1.3352-.4515-2.3634-1.818-2.3649-3.143.7883,1.0477,1.5766,2.0953,2.3649,3.143Z" style="fill:#30a1db; stroke-width:0px;"/><path d="M88.3001,110.4143c1.2303-.0002,2.4619-.0316,3.6899.0207.3162.0135.6211.2906.9312.4466-.0797.0752-.1595.1505-.2392.2257-1.4606-.231-2.9212-.462-4.3818-.6931Z" style="fill:#2599d5; stroke-width:0px;"/><path d="M40.745,72.7599c-.2103.2261-.3882.5064-.6427.6585-.1588.0949-.4332-.0038-.6558-.0156.0169-.1792.0423-.3581.0489-.5376.0165-.4435.0243-.8873.0356-1.3313.4046.4085.8093.8173,1.214,1.2261Z" style="fill:#32a6dd; stroke-width:0px;"/><path d="M3.6143,22.5066c.2309.9107.4978,1.8144.6772,2.7351.0882.4527.0144.937.0139,1.4071-.2303-1.3807-.4607-2.7614-.6911-4.1422Z" style="fill:#2896d3; stroke-width:0px;"/><path d="M92.6819,111.1074c.0797-.0752.1595-.1505.2392-.2257,1.4371.0028,2.8742.0056,4.3113.0082-.0002.0697-.0001.1396.0002.2094-.0769.025-.1538.05-.2307.0749-.9591.0808-1.9182.1616-2.8772.2424-.4809-.1031-.9619-.2062-1.4428-.3093Z" style="fill:#3097d4; stroke-width:0px;"/><path d="M22.5447,62.4924c.4021-.0802.8043-.1603,1.4138-.2818-.0765.57-.1541,1.1484-.2316,1.7266-.394-.4816-.7881-.9632-1.1822-1.4448Z" style="fill:#32a6dd; stroke-width:0px;"/><path d="M10.0688,17.2932c.0005-.942-.0739-1.8926.0334-2.8223.0534-.4625.4398-.8867.6756-1.3286-.2363,1.3833-.4726,2.7671-.709,4.1509Z" style="fill:#2599d5; stroke-width:0px;"/><path d="M3.5877,16.4774c.0019,1.9565.0038,3.913.0057,5.8696-.085-.5221-.2529-1.0464-.2393-1.5661.0373-1.4356.1505-2.8692.2336-4.3035Z" style="fill:#168cc8; stroke-width:0px;"/><path d="M110.3563,92.6735c.0919-.0016.1839-.0031.2757-.0048-.1087.9548.2995,2.0913-.9314,2.6523.2186-.8824.4371-1.7649.6557-2.6474Z" style="fill:#32a8e0; stroke-width:0px;"/><path d="M11.4733,45.2763c1.2703.4826,1.1825,1.6946,1.4565,2.7126-.4854-.904-.9709-1.8083-1.4565-2.7126Z" style="fill:#3097d4; stroke-width:0px;"/><path d="M24.4832,3.1043c-.7837.0012-1.5702.0414-2.3494-.0172-.2831-.0213-.5486-.2783-.8222-.4277,1.0571.1483,2.1144.2966,3.1716.4449Z" style="fill:#258fcd; stroke-width:0px;"/><path d="M10.5182,23.7064c-.1483-1.2963-.2965-2.5926-.4448-3.8891.1482,1.2963.2965,2.5927.4448,3.8891Z" style="fill:#1c92d0; stroke-width:0px;"/><path d="M104.6543,109.2076c.6392-.4813,1.2784-.9626,1.9177-1.4439-.6392.4813-1.2785.9626-1.9177,1.4439Z" style="fill:#dde0ef; stroke-width:0px;"/><path d="M94.1248,111.4167c.9591-.0808,1.9182-.1616,2.8772-.2424-.8947.8452-1.8984.3963-2.8772.2424Z" style="fill:#dde0ef; stroke-width:0px;"/><path d="M109.204,104.897c.4003-.7202.8007-1.4403,1.201-2.1606-.4003.7202-.8007,1.4404-1.201,2.1606Z" style="fill:#dde0ef; stroke-width:0px;"/><path d="M98.6684,110.8561c.825-.148,1.6501-.296,2.4754-.4441-.825.148-1.6502.2961-2.4754.4441Z" style="fill:#2896d3; stroke-width:0px;"/><path d="M102.5349,109.9298c.6317-.2226,1.2634-.4452,1.8952-.6677-.6412.3016-1.2824.6032-1.9237.9047.0033-.0798.0128-.1587.0284-.237Z" style="fill:#dde0ef; stroke-width:0px;"/><path d="M87.2375,103.2084c-.5769-.1634-1.1538-.3268-1.7307-.4902.5769.1634,1.1538.3268,1.7307.4902Z" style="fill:#2599d5; stroke-width:0px;"/><path d="M85.5163,102.7276c-.4854-.1478-.9708-.2956-1.4563-.4434.4854.1478.9709.2956,1.4563.4434Z" style="fill:#2599d5; stroke-width:0px;"/><path d="M27.5464,3.5896c.3019.0544.6038.1089.9058.1633-.0315.1052-.0616.301-.0947.3015-.2952.0046-.591-.0252-.8866-.0449.0252-.14.0504-.2799.0755-.4199Z" style="fill:#168cc8; stroke-width:0px;"/><path d="M10.0448,19.6358c.0005-.7155.0011-1.431.0016-2.1466-.0005.7155-.0011,1.4311-.0016,2.1466Z" style="fill:#2599d5; stroke-width:0px;"/><path d="M111.4127,98.9198c.0791-.5609.1582-1.1217.2375-1.6825-.0791.5609-.1583,1.1217-.2375,1.6825Z" style="fill:#dde0ef; stroke-width:0px;"/><path d="M110.8453,86.931c.0317-.0821.0635-.1643.0953-.2464.0778.4806.1556.9612.2335,1.4418-.1095-.3985-.2191-.7969-.3287-1.1954Z" style="fill:#dde0ef; stroke-width:0px;"/><path d="M102.5349,109.9298c-.0157.0782-.0251.1572-.0284.237-.4066.0751-.8131.1502-1.2199.2253.416-.1541.8322-.3082,1.2484-.4623Z" style="fill:#2896d3; stroke-width:0px;"/><path d="M111.5834,91.4878c-.07-.5819-.1401-1.1637-.2101-1.7457.07.5818.1401,1.1638.2101,1.7457Z" style="fill:#258fcd; stroke-width:0px;"/><path d="M107.0529,107.5331c.2113-.2609.4226-.5218.633-.7831-.2116.2607-.4223.5219-.633.7831Z" style="fill:#dde0ef; stroke-width:0px;"/><path d="M10.791,13.0243c.1625-.4272.325-.8544.4876-1.2816-.1625.4272-.325.8544-.4876,1.2816Z" style="fill:#2599d5; stroke-width:0px;"/><path d="M111.1769,100.3457c.0606-.3207.1213-.6415.1819-.9622-.0606.3207-.1213.6415-.1819.9622Z" style="fill:#dde0ef; stroke-width:0px;"/><path d="M11.7467,10.6287c.1642-.2652.3284-.5305.4927-.7957-.1642.2652-.3284.5305-.4927.7957Z" style="fill:#2896d3; stroke-width:0px;"/><path d="M108.4834,105.8536c.1614-.2409.3229-.4817.4844-.7226-.1614.2409-.3229.4818-.4844.7226Z" style="fill:#dde0ef; stroke-width:0px;"/><path d="M107.7064,106.7286c.1811-.2132.3621-.4264.5432-.6397-.1811.2132-.3621.4264-.5432.6397Z" style="fill:#dde0ef; stroke-width:0px;"/><path d="M97.2327,111.0994c-.0003-.0698-.0004-.1397-.0002-.2094.4191.0003.8381.0004,1.2573.0006-.4189.0696-.838.1392-1.2571.2089Z" style="fill:#2896d3; stroke-width:0px;"/><path d="M27.1365,3.9263c-.1742-.1157-.3484-.2314-.5226-.3472.2224.0402.4449.0804.6673.1206-.0482.0755-.0965.1511-.1447.2266Z" style="fill:#2ab4e8; stroke-width:0px;"/><path d="M13.2083,48.5994c.1468.2513.2935.5027.4403.754-.1468-.2513-.2935-.5027-.4403-.754Z" style="fill:#3097d4; stroke-width:0px;"/><path d="M51.4785,91.5149c.1594.0815.3188.163.4781.2446-.1594-.0815-.3188-.163-.4781-.2446Z" style="fill:#2ab4e8; stroke-width:0px;"/><path d="M110.4605,102.5163c.0604-.1663.1208-.3326.1812-.4989-.0604.1663-.1208.3326-.1812.4989Z" style="fill:#dde0ef; stroke-width:0px;"/><path d="M11.2668,11.7568c.076-.1746.152-.3492.228-.5241-.076.1745-.152.3493-.228.5241Z" style="fill:#2896d3; stroke-width:0px;"/><path d="M11.1775,44.7914c.1036.166.2072.332.3108.4981-.1036-.166-.2072-.332-.3108-.4981Z" style="fill:#3097d4; stroke-width:0px;"/><path d="M12.2252,9.8405c.0747-.0949.1494-.1898.224-.2851-.0747.0948-.1494.1899-.224.2851Z" style="fill:#2896d3; stroke-width:0px;"/><path d="M12.9396,48.1013c.0766.1214.1533.2428.23.3644-.0766-.1213-.1533-.2428-.23-.3644Z" style="fill:#3097d4; stroke-width:0px;"/><path d="M13.6391,49.3376c.0819.0969.1638.1937.2456.2907-.0819-.0968-.1638-.1938-.2456-.2907Z" style="fill:#3097d4; stroke-width:0px;"/><path d="M10.2872,43.1167c.0803.1019.1605.2037.2408.3058-.0803-.1018-.1605-.2038-.2408-.3058Z" style="fill:#32a8e0; stroke-width:0px;"/><path d="M10.0936,42.864c.0673.0874.1345.1747.2018.2621-.0673-.0874-.1346-.1748-.2018-.2621Z" style="fill:#32a8e0; stroke-width:0px;"/><path d="M27.8017,57.9512c-.0817-.0957-.1633-.1914-.245-.2873.0817.0957.1633.1915.245.2873Z" style="fill:#30a1db; stroke-width:0px;"/><path d="M11.5067,11.1092c.0758-.1201.1515-.2403.2272-.3608-.0758.12-.1515.2404-.2272.3608Z" style="fill:#2896d3; stroke-width:0px;"/><path d="M111.5419,91.9759c.022-.0993.044-.1985.066-.2979,0,1.6197.0001,3.2395.0003,4.8593-.0068-.9646-.0137-1.9292-.0205-2.8939-.0064-.3233-.0129-.6466-.0195-.9698-.0088-.2326-.0176-.4651-.0263-.6977Z" style="fill:#258fcd; stroke-width:0px;"/><path d="M43.4208,77.3605l1.0195,1.2061c-.1656.0628-.425.2251-.4813.172-.3385-.3191-.6303-.6876-.9378-1.0395l.3996-.3385Z" style="fill:#10bee1; stroke-width:0px;"/><path d="M111.5682,92.6736c.0065.3233.0131.6465.0195.9698-.6616-.3102-.6601-.6337-.0195-.9698Z" style="fill:#26abe2; stroke-width:0px;"/><path d="M95.1001,65.3965c-.9052-1.611-1.7659-3.2509-2.734-4.8257-.4656-.7574-.9888-1.4769-1.4997-2.2038-.5224-.7433-1.0158-1.506-1.5297-2.2551-2.0943-3.0524-4.3678-5.9954-6.7649-8.815-.6734-.7921-1.361-1.5719-2.0527-2.348-.681-.7641-1.4026-1.5061-2.0205-2.3222-.0828-.0888-.1657-.1776-.2485-.2664l.0049.0079v-.6522c-.2207-.0344-.3569-.0556-.4931-.0768-.1488-.1554-.2975-.3107-.4463-.4661-.0878-.085-.1757-.1701-.2635-.2551l.0059.0083c-.0329-.3589-.0658-.7178-.1059-1.155-.4516-.0202-.7825-.035-1.1135-.0498-.1628-.3685-.3255-.737-.583-1.3198.1917-.1153.4113-.2474.631-.3795.1727.0668.3455.1336.3902.1509.3349-.173.5586-.2886.7824-.4042-.0591.2988-.1181.5976-.1809.9152.2197.1871.4216.359.6404.5453.6865-.4655.7531-1.3818,1.4844-1.708,2.6645,2.8977,5.323,5.7895,7.8604,8.8007,1.246,1.4786,2.3926,3.009,3.5164,4.5816,1.1402,1.5955,2.2854,3.1876,3.3974,4.803,1.2448,1.8085,2.3348,3.6955,3.4661,5.5747-.3866.66-.7731,1.32-1.2358,2.1098.1511.6231.3336,1.3759.5323,2.1953-.55.0248-.8995.0406-1.249.0564l.0079.006-.199-.2525Z" style="fill:#28b4e8; stroke-width:0px;"/><path d="M101.5842,82.4319c-.1472-.3589-.2943-.7178-.4627-1.1283-1.4046-.054-2.5267-.6309-3.624-1.4688-1.8199-1.3895-2.5208-3.2356-2.6539-5.3921-.0229-.3709.1674-.755.2593-1.133.478-.4286,1.0924-.7776,1.4001-1.3054.4035-.6922.8685-1.1626,1.6945-1.2439-.0436-.3087-.0747-.5283-.1156-.8176h-1.1187c.0188-.3174.0376-.6348.0564-.9523l.1052.0003.1052-.0003c.3195.16.6391.32.9586.48.2547.0343.5187.1293.7626.0923.9242-.1402,1.8362-.1499,2.7309.0077.0168.1297.0387.1915.0241.2018-.3085.2177-.6195.4318-.9331.6421-.7618.5111-.8566.9715-.3965,1.9452-.0083.4366-.0048.8738-.0273,1.3097-.0502.9729.244,1.8204.7229,2.6746.7043,1.256,1.7922,1.7974,3.1171,2.0386.2436.0695.4885.1347.7304.2098.2383.074.4734.158.7099.2377-.1676.2455-.3097.5145-.509.7308-.2591.2812-.3145.505.0507.7221-.0147.0776-.0338.154-.0574.2294-.5865.4548-.4741,1.3587.2383,1.917.018.5552.0361,1.1104.0541,1.6657l-.0283.0271c-.2364-.0037-.4729-.0075-.7093-.0112.3719-1.3149-1.1364-1.9161-1.0761-3.1381-.4005.0382-.7041.0672-1.1131.1062.1348.4816.2464.8803.3478,1.2424.3276.0942.5824.1675.8651.2489-.0345,1.0817.1593,2.1178-.1209,3.1247-.086.0063-.1719.0126-.2579.0189l-.178-2.0388c-.0682.0056-.1363.0111-.2045.0167-.1311.2074-.2623.4149-.5387.8521-.1567-.7182-.2327-1.2075-.381-1.6736-.0553-.1738-.2798-.2938-.4271-.4383Z" style="fill:#27b5e9; stroke-width:0px;"/><path d="M101.5842,82.4319c.1473.1445.3718.2645.4271.4383.1484.4662.2243.9554.381,1.6736.2764-.4372.4075-.6446.5387-.8521.0682-.0056.1363-.0111.2045-.0167l.178,2.0388c.086-.0063.1719-.0126.2579-.0189.2802-1.0069.0864-2.043.1209-3.1247-.2827-.0813-.5375-.1546-.8651-.2489-.1014-.3621-.213-.7608-.3478-1.2424.409-.039.7126-.068,1.1131-.1062-.0603,1.222,1.4481,1.8233,1.0761,3.1381,0,.719-.0381,1.4407.0106,2.1564.0472.6948-.236,1.4478.2957,2.2208.4989-1.5218.4295-2.9459.403-4.366l.0283-.0271c.1548.3458.4334.6883.4429,1.0381.0421,1.5382-.0384,3.0566-.332,4.594-.2703,1.4152-.7337,2.7239-1.3345,3.9947-.3102.6561-.8084,1.2281-1.2535,1.8139-.2618.3445-.5861.6416-.8545.9806-1.5513,1.622-3.4161,2.5941-5.7837,2.6069.2028-.2143.3693-.5447.6151-.6218.8506-.2668,1.1923-1.062,1.7932-1.5804,1.1187-.9649,1.6769-2.2425,2.204-3.5827.9126-2.3201,1.2043-4.7207,1.1027-7.1754-.0516-1.2473-.2757-2.4875-.4217-3.7309Z" style="fill:#28b3e7; stroke-width:0px;"/><path d="M97.2299,68.9907l-.1052.0003-.1052-.0003c-.5761-1.1159-1.1522-2.2317-1.7283-3.3476.3495-.0158.699-.0316,1.249-.0564-.1987-.8194-.3812-1.5722-.5323-2.1953.4626-.7898.8492-1.4498,1.2358-2.1098.305.4898.61.9796.9149,1.4694-.3943.1154-.7887.2309-1.3327.3902.2464.6844.4381,1.2169.6678,1.855-.3031.7543-.6402,1.5931-.9773,2.4319.0785.0572.1569.1144.2354.1716.4816-.3517.9633-.7034,1.6047-1.1717v1.7439c1.6391.2761,3.2541.5443,4.8674.8225.4219.0727.8858.1095.9643.68-.3982.0183-.7964.0366-1.1718.0538-1.1824.5902-2.0118,1.5109-2.6398,2.6317-.4601-.9737-.3653-1.4342.3965-1.9452.3136-.2103.6246-.4245.9331-.6421.0145-.0103-.0073-.072-.0241-.2018-.8947-.1576-1.8068-.1479-2.7309-.0077-.2439.037-.5079-.0579-.7626-.0923v-.8569c-.2464-.1995-.4832-.3912-.7199-.5829-.1398.0292-.2796.0584-.5327.1112.1376.1726.2159.2708.2941.3689,0,.1599,0,.3198-.0001.4797Z" style="fill:#29b2e7; stroke-width:0px;"/><path d="M104.1881,69.6742c-.0784-.5705-.5423-.6072-.9643-.68-1.6133-.2781-3.2283-.5464-4.8674-.8225v-1.7439c-.6414.4684-1.1231.8201-1.6047,1.1717-.0785-.0572-.1569-.1144-.2354-.1716.3371-.8388.6742-1.6776.9773-2.4319-.2297-.6381-.4214-1.1706-.6678-1.855.5441-.1593.9384-.2747,1.3327-.3902.0254.0663.0388.135.0399.2061.067.0896.1339.1793.2009.2689.0229.0692.0365.1402.041.2129.1463.4705.2867.9431.4497,1.4077.0135.0384.1803.023.2759.0326.0778.1606.1557.3213.2335.4819.083.1673.1661.3347.2491.502l-.0103-.0106c.0666.0844.1331.1688.1997.2532.0232.0705.037.1428.0412.2169-.2282.3583-.4564.7166-.7821,1.2279h1.46c.0235.0672.0364.1363.0386.2074.1683.087.3366.174.5049.261.0733.0034.1447.0165.2144.0393.1556.0006.3112.0011.4668.0017l.9742-.0002c.1665.067.3329.1341.4994.2011.4741.1507.9483.3013,1.4224.452l.4873.2663-.0045-.0053c.1046.5967-.5789.3769-.7321.7065-.0802-.002-.1604-.0041-.2406-.0061Z" style="fill:#27b5e9; stroke-width:0px;"/><path d="M96.9631,69.9429h1.1187c.0409.2893.0719.5089.1156.8176-.8259.0813-1.291.5516-1.6945,1.2439-.3076.5278-.9221.8768-1.4001,1.3054.1946-1.3574.6639-2.563,1.8602-3.3669Z" style="fill:#29b2e7; stroke-width:0px;"/><path d="M105.6295,78.8301c-.2365-.0796-.4716-.1637-.7099-.2377-.2419-.0751-.4868-.1403-.7304-.2098,1.1821-.0714,2.1942-.4774,2.9051-1.4762.068-.0853.136-.1707.204-.256l-.0129.0004c.2608.0122.5216.0245.7824.0367-.372,1.0115-.8392,1.9617-1.7063,2.655-.244-.1708-.4879-.3416-.7319-.5125Z" style="fill:#2bace3; stroke-width:0px;"/><path d="M79.0034,37.5215c-.7313.3262-.7979,1.2425-1.4844,1.708-.2188-.1863-.4207-.3583-.6404-.5453.0628-.3176.1219-.6164.1809-.9152.3222-.4133.6444-.8265.9666-1.2398.3257.3308.6515.6615.9772.9923Z" style="fill:#35afe1; stroke-width:0px;"/><path d="M106.1171,69.6798c1.0376.1317,1.0644,1.1836,1.5506,1.7952.3766.4737.4237,1.2095.6172,1.8288-.0886.0934-.1773.1868-.2659.2802-.1522-.3816-.3454-.7524-.4488-1.1468-.2946-1.1238-1.2431-1.7096-1.9732-2.4763l.52-.281Z" style="fill:#2892cf; stroke-width:0px;"/><path d="M108.019,73.5839c.0886-.0934.1773-.1868.2659-.2802.4303,1.1602.3503,2.2877-.2172,3.3838-.2608-.0122-.5216-.0245-.7824-.0367.3413-.9992.8404-1.9606.7337-3.067Z" style="fill:#21a4db; stroke-width:0px;"/><path d="M78.0262,36.5292c-.3222.4133-.6444.8265-.9666,1.2398-.2237.1156-.4475.2312-.7824.4042-.0447-.0173-.2175-.0841-.3902-.1509.3913-.4558.7977-.8998,1.1692-1.3713.2989-.3793.6024-.4327.97-.1217Z" style="fill:#5fbfb0; stroke-width:0px;"/><path d="M105.6295,78.8301c.244.1708.4879.3416.7319.5125-.1526.1536-.3052.3072-.4577.4607-.1715.1451-.3429.2902-.5144.4353-.0714.021-.1441.0358-.2181.0444-.3651-.2171-.3097-.4409-.0507-.7221.1993-.2163.3414-.4853.509-.7308Z" style="fill:#28b1e6; stroke-width:0px;"/><path d="M100.5573,67.5504h-1.46c.3256-.5113.5539-.8696.7821-1.2279.226.4093.452.8186.6779,1.2279Z" style="fill:#29b2e7; stroke-width:0px;"/><path d="M106.1171,69.6798l-.52.281c-.3895-.0935-.7789-.187-1.1684-.2805.1532-.3296.8367-.1097.7321-.7065.3187.2353.6375.4706.9562.7059Z" style="fill:#29b2e7; stroke-width:0px;"/><path d="M105.3521,82.4293c-.7125-.5583-.8249-1.4622-.2383-1.917.0794.639.1589,1.278.2383,1.917Z" style="fill:#28b1e6; stroke-width:0px;"/><path d="M75.8389,39.7215c.3309.0148.6618.0296,1.1135.0498.0401.4372.073.7961.1059,1.155-.4064-.4016-.8129-.8032-1.2193-1.2048Z" style="fill:#2caee4; stroke-width:0px;"/><path d="M99.1661,64.879c-.0956-.0096-.2625.0058-.2759-.0326-.163-.4646-.3034-.9372-.4497-1.4077.2419.4801.4837.9602.7256,1.4402Z" style="fill:#29b2e7; stroke-width:0px;"/><path d="M77.7621,41.6393c.1362.0212.2723.0424.4931.0768v.6522l-.4931-.729Z" style="fill:#2caee4; stroke-width:0px;"/><path d="M105.3892,80.2386c.1715-.1451.3429-.2902.5144-.4353-.1715.1451-.3429.2902-.5144.4353Z" style="fill:#2bace3; stroke-width:0px;"/><path d="M99.6487,65.8629c-.083-.1673-.1661-.3347-.2491-.502.083.1673.1661.3347.2491.502Z" style="fill:#29b2e7; stroke-width:0px;"/><path d="M101.1007,68.0189c-.1683-.087-.3366-.174-.5049-.261.1683.087.3366.174.5049.261Z" style="fill:#29b2e7; stroke-width:0px;"/><path d="M101.7819,68.0599c-.1556-.0006-.3112-.0011-.4668-.0017.1556.0006.3112.0011.4668.0017Z" style="fill:#29b2e7; stroke-width:0px;"/><path d="M103.2555,68.2608c-.1665-.067-.3329-.1341-.4994-.2011.1665.067.3329.1341.4994.2011Z" style="fill:#29b2e7; stroke-width:0px;"/><path d="M105.1653,68.9792l-.4873-.2663.4873.2663Z" style="fill:#29b2e7; stroke-width:0px;"/><path d="M77.0523,40.9181c.0878.085.1757.1701.2635.2551-.0878-.085-.1757-.1701-.2635-.2551Z" style="fill:#2caee4; stroke-width:0px;"/><path d="M78.2502,42.3604c.0828.0888.1657.1776.2485.2664-.0828-.0888-.1657-.1776-.2485-.2664Z" style="fill:#2caee4; stroke-width:0px;"/><path d="M98.3995,63.2259c-.067-.0896-.1339-.1793-.2009-.2689.067.0896.1339.1793.2009.2689Z" style="fill:#29b2e7; stroke-width:0px;"/><path d="M95.1001,65.3965l.199.2525-.199-.2525Z" style="fill:#29b2e7; stroke-width:0px;"/><path d="M99.8381,66.1056c-.0666-.0844-.1331-.1688-.1997-.2532.0666.0844.1331.1688.1997.2532Z" style="fill:#29b2e7; stroke-width:0px;"/><path d="M105.3779,84.1221c.0264,1.4201.0959,2.8442-.403,4.366-.5317-.7729-.2485-1.5259-.2957-2.2208-.0487-.7157-.0107-1.4374-.0106-2.1564.2364.0038.4729.0075.7093.0112Z" style="fill:#17baed; stroke-width:0px;"/><path d="M97.2299,68.9907c0-.1599,0-.3198.0001-.4797.0795-.16.159-.32.2386-.4801.2367.1917.4735.3834.7199.5829v.8569c-.3195-.16-.6391-.32-.9586-.48Z" style="fill:#20b7ea; stroke-width:0px;"/><path d="M97.4686,68.0309c-.0795.16-.159.32-.2386.4801-.0783-.0982-.1565-.1963-.2941-.3689.2531-.0528.3929-.082.5327-.1112Z" style="fill:#27b5e9; stroke-width:0px;"/><path d="M107.0943,76.9065c.068-.0853.136-.1707.204-.256-.068.0853-.136.1707-.204.256Z" style="fill:#21a4db; stroke-width:0px;"/></g></svg>